<?xml version="1.0" standalone="no"?>
<!DOCTYPE svg PUBLIC "-//W3C//DTD SVG 20010904//EN"
 "http://www.w3.org/TR/2001/REC-SVG-20010904/DTD/svg10.dtd">
<svg version="1.0" xmlns="http://www.w3.org/2000/svg"
 width="448.000000pt" height="448.000000pt" viewBox="0 0 448.000000 448.000000"
 preserveAspectRatio="xMidYMid meet">
<metadata>
Created by potrace 1.14, written by Peter Selinger 2001-2017
</metadata>
<g transform="translate(0.000000,448.000000) scale(0.100000,-0.100000)"
fill="#000000" stroke="none">
<path d="M4295 4470 c-3 -5 1 -10 9 -10 9 0 16 5 16 10 0 6 -4 10 -9 10 -6 0
-13 -4 -16 -10z"/>
<path d="M4335 4430 c-3 -5 -17 -10 -31 -10 -33 0 -32 -5 19 -61 9 -10 17 -22
17 -27 0 -13 70 -72 85 -72 8 0 15 -7 15 -16 0 -15 23 -44 34 -44 14 0 4 48
-14 68 -11 12 -20 26 -20 31 0 6 -12 18 -27 28 -40 24 -53 43 -53 74 0 29 -14
46 -25 29z"/>
<path d="M2055 4210 c-11 -5 -49 -9 -85 -9 -37 -1 -70 -5 -75 -10 -6 -5 -28
-11 -50 -14 -22 -3 -58 -10 -80 -17 -22 -6 -51 -14 -65 -16 -14 -3 -34 -9 -45
-14 -11 -5 -41 -14 -67 -21 -27 -8 -48 -17 -48 -21 0 -4 -7 -8 -15 -8 -9 0
-35 -9 -57 -20 -23 -11 -48 -20 -55 -20 -7 0 -13 -3 -13 -8 0 -4 -17 -15 -37
-24 -48 -22 -92 -48 -117 -70 -11 -10 -24 -18 -28 -18 -5 0 -20 -11 -34 -25
-14 -14 -29 -25 -34 -25 -5 0 -25 -16 -44 -35 -20 -19 -38 -35 -41 -35 -15 0
-103 -85 -141 -137 -16 -21 -37 -45 -46 -54 -10 -9 -18 -20 -18 -25 0 -5 -14
-25 -30 -44 -16 -19 -30 -41 -30 -47 0 -7 -4 -13 -10 -13 -5 0 -10 -9 -10 -20
0 -11 -4 -20 -10 -20 -5 0 -10 -9 -10 -20 0 -11 -4 -20 -10 -20 -5 0 -10 -7
-10 -15 0 -9 -9 -35 -20 -57 -29 -60 -27 -68 21 -68 l41 0 -9 -67 c-16 -136
-4 -493 19 -540 9 -19 6 -28 -21 -60 -17 -21 -36 -43 -41 -50 -6 -7 -10 -27
-10 -45 0 -18 -12 -53 -25 -78 -14 -25 -28 -53 -31 -62 -4 -10 -10 -18 -15
-18 -5 0 -9 -9 -9 -20 0 -11 -4 -20 -10 -20 -5 0 -10 -6 -10 -13 0 -7 -8 -22
-18 -33 -10 -10 -29 -35 -42 -54 -14 -19 -69 -79 -122 -132 -124 -123 -138
-148 -138 -238 0 -40 4 -70 10 -70 6 0 10 -18 10 -40 0 -22 5 -40 10 -40 6 0
10 -10 10 -23 0 -13 4 -27 9 -33 11 -10 21 -143 24 -310 2 -95 5 -117 27 -160
14 -27 33 -58 42 -68 10 -11 18 -24 18 -29 0 -13 52 -57 68 -57 6 0 12 -4 12
-8 0 -4 20 -14 45 -21 45 -13 56 -13 175 8 92 17 154 45 203 92 35 34 60 49
88 53 21 3 57 9 79 12 22 3 43 10 46 15 8 13 58 11 72 -3 7 -7 12 -24 12 -39
0 -15 5 -31 10 -34 6 -3 10 -26 10 -51 0 -24 5 -44 10 -44 6 0 10 -13 10 -29
0 -17 5 -33 10 -36 6 -3 10 -14 10 -24 0 -9 9 -36 20 -59 11 -22 20 -48 20
-57 0 -8 5 -15 10 -15 6 0 10 -9 10 -20 0 -11 5 -20 10 -20 6 0 10 -9 10 -20
0 -11 5 -20 10 -20 6 0 10 -9 10 -20 0 -11 5 -20 10 -20 6 0 10 -9 10 -20 0
-11 5 -20 10 -20 6 0 10 -9 10 -20 0 -20 -24 -28 -34 -11 -3 5 -20 11 -38 14
-18 4 -49 9 -68 12 -19 4 -44 10 -55 15 -28 12 -43 15 -242 50 -81 14 -198 28
-335 39 -64 5 -121 12 -127 15 -14 9 -478 10 -523 1 l-38 -7 0 -354 0 -354
2080 0 c1842 0 2080 2 2080 15 0 19 24 19 44 0 11 -12 42 -15 145 -15 l131 0
0 139 c0 114 -3 140 -15 145 -8 3 -15 12 -15 21 0 8 -5 14 -11 12 -18 -3 -28
49 -18 87 5 18 20 46 34 62 l25 29 0 397 0 397 -37 -6 c-21 -3 -42 -10 -47
-14 -6 -5 -26 -9 -46 -9 -20 0 -40 -4 -46 -9 -5 -5 -36 -12 -69 -15 -33 -3
-86 -8 -117 -12 -39 -4 -58 -2 -58 5 0 6 3 11 8 11 4 0 13 15 20 33 7 17 18
40 23 49 5 10 9 31 9 47 0 17 4 33 10 36 6 4 10 65 10 150 0 85 -4 146 -10
150 -5 3 -10 19 -10 35 0 16 -4 31 -8 34 -4 3 -14 28 -22 55 -7 28 -17 51 -22
51 -4 0 -8 9 -8 19 0 11 -6 21 -12 23 -17 6 14 38 36 38 9 0 16 5 16 10 0 6 9
10 19 10 11 0 23 5 26 10 3 6 17 10 30 10 13 0 26 4 29 9 7 11 69 21 173 27
54 4 86 10 94 20 6 8 9 17 6 20 -10 10 -211 4 -221 -6 -6 -6 -25 -10 -43 -10
-18 0 -33 -3 -33 -8 0 -4 -19 -13 -42 -20 -60 -18 -98 -36 -98 -44 0 -5 -9 -8
-20 -8 -12 0 -20 7 -20 16 0 9 -9 25 -21 35 -18 16 -19 20 -7 32 20 21 236 46
421 49 l87 2 0 38 c0 31 -4 38 -19 38 -11 0 -21 -5 -23 -11 -4 -11 -64 -18
-298 -35 -41 -3 -79 -10 -84 -15 -6 -5 -29 -9 -52 -9 -24 0 -46 -4 -49 -10
-11 -19 -47 -10 -74 18 -28 29 -74 60 -103 69 -10 3 -18 9 -18 14 0 5 -9 9
-20 9 -11 0 -20 5 -20 10 0 6 -17 10 -39 10 -52 0 -69 20 -53 64 16 43 16 237
0 271 -9 21 -9 31 0 46 7 10 12 28 12 38 0 11 4 22 9 25 17 11 24 82 24 246 0
169 -9 270 -24 270 -5 0 -9 13 -9 29 0 17 -4 33 -10 36 -5 3 -10 17 -10 31 0
13 -4 24 -10 24 -5 0 -10 10 -10 23 0 12 -9 33 -20 47 -11 14 -20 31 -20 38 0
6 -4 12 -10 12 -5 0 -10 6 -10 13 0 7 -9 23 -20 35 -11 12 -20 29 -20 38 0 13
7 15 43 10 80 -10 117 -18 117 -25 0 -4 23 -18 50 -31 28 -13 50 -27 50 -32 0
-14 30 -9 36 7 7 17 -18 45 -39 45 -9 0 -17 3 -19 8 -6 13 -90 52 -114 52 -13
0 -24 5 -24 10 0 6 -34 10 -81 10 l-81 0 6 43 c15 95 18 212 7 249 -6 21 -16
57 -23 81 -12 39 -29 67 -42 67 -9 0 -7 -48 3 -68 22 -43 31 -95 31 -175 0
-78 -13 -137 -30 -137 -10 0 -50 49 -50 61 0 15 -209 222 -247 244 -18 11 -33
23 -33 27 0 4 -6 8 -13 8 -7 0 -23 9 -35 20 -12 11 -28 20 -36 20 -8 0 -16 3
-18 8 -4 10 -87 52 -104 52 -8 0 -14 5 -14 10 0 6 -9 10 -19 10 -11 0 -23 5
-26 10 -3 6 -17 10 -31 10 -13 0 -24 5 -24 10 0 6 -13 10 -29 10 -17 0 -32 4
-35 9 -3 5 -18 11 -33 14 -16 3 -48 11 -73 17 -137 32 -464 52 -515 30z m-199
-585 c4 -9 -14 -34 -48 -67 -56 -56 -88 -78 -113 -78 -8 0 -15 -4 -15 -9 0
-20 -404 -41 -423 -22 -6 6 -30 11 -54 11 -24 0 -43 3 -43 6 0 14 31 34 54 34
14 0 26 5 26 10 0 6 11 10 25 10 14 0 33 4 43 9 9 5 37 14 62 21 25 7 55 16
68 21 13 5 36 9 52 9 16 0 32 5 35 10 3 6 27 10 52 10 26 0 60 4 77 9 31 10
132 27 174 30 12 0 25 -6 28 -14z m121 -37 c-3 -29 -9 -70 -12 -90 -6 -33 -5
-38 12 -38 28 0 43 40 43 115 0 57 2 65 19 65 16 0 20 -9 25 -62 9 -107 18
-158 27 -159 32 -6 33 -3 30 109 l-3 112 51 0 c48 0 51 -1 51 -26 0 -14 5 -35
12 -47 17 -32 74 -87 90 -87 15 0 38 -19 38 -32 0 -4 -9 -8 -20 -8 -11 0 -20
-4 -20 -10 0 -5 -7 -10 -15 -10 -20 0 -165 -145 -165 -165 0 -8 -4 -15 -10
-15 -5 0 -10 -9 -10 -20 0 -11 -3 -20 -7 -20 -9 0 -33 -49 -33 -67 0 -7 -4
-13 -10 -13 -5 0 -10 -7 -10 -15 0 -23 -22 -65 -31 -59 -5 3 -9 16 -9 29 0 13
-4 27 -10 30 -5 3 -10 17 -10 31 0 13 -4 24 -10 24 -5 0 -10 9 -10 20 0 11 -4
20 -10 20 -5 0 -10 9 -10 20 0 11 -4 20 -8 20 -4 0 -16 14 -26 31 -23 39 -75
89 -92 89 -7 0 -14 3 -16 8 -1 4 -24 18 -50 31 -51 26 -61 41 -28 41 11 0 20
4 20 8 0 5 12 15 28 23 34 18 79 64 87 90 4 10 11 19 16 19 5 0 9 7 9 15 0 25
23 44 53 45 29 0 29 0 24 -52z m398 35 c22 -2 49 -8 60 -13 11 -5 40 -11 65
-14 78 -9 120 -18 126 -27 3 -5 21 -9 40 -9 19 0 34 -4 34 -8 0 -5 23 -15 50
-22 28 -7 50 -17 50 -22 0 -4 11 -8 24 -8 14 0 28 -4 31 -10 3 -5 15 -10 26
-10 10 0 19 -4 19 -10 0 -5 7 -10 15 -10 9 0 26 -9 38 -21 l22 -21 -40 6 c-22
4 -75 9 -117 12 -43 4 -78 10 -78 14 0 11 -60 21 -160 27 -47 2 -89 9 -94 14
-6 5 -32 9 -58 9 -26 0 -48 5 -48 10 0 6 -10 10 -22 10 -36 0 -78 42 -78 78 0
32 15 44 40 35 8 -4 33 -8 55 -10z m-1215 -205 c30 -5 83 -12 118 -15 34 -2
62 -7 62 -10 0 -11 -30 -33 -44 -33 -9 0 -16 -4 -16 -10 0 -5 -7 -10 -16 -10
-19 0 -153 -133 -173 -172 -8 -16 -18 -28 -23 -28 -4 0 -8 -9 -8 -20 0 -11 -4
-20 -10 -20 -5 0 -10 -7 -10 -15 0 -8 -4 -23 -9 -33 -17 -34 -30 -67 -36 -97
-3 -16 -11 -48 -17 -70 -6 -22 -13 -77 -15 -122 -4 -77 -6 -84 -35 -108 -43
-37 -52 -25 -43 64 3 42 10 177 15 301 5 124 12 250 16 280 7 60 28 100 53
101 9 0 30 9 46 19 20 13 40 17 60 13 17 -3 55 -10 85 -15z m1460 2 c30 -6 76
-13 103 -16 26 -4 50 -11 53 -15 3 -5 14 -9 25 -9 10 0 19 -4 19 -10 0 -5 7
-10 15 -10 19 0 135 -115 154 -153 8 -15 18 -27 23 -27 4 0 8 -8 8 -19 0 -12
-10 -21 -27 -25 -40 -10 -122 -26 -166 -33 -20 -3 -40 -9 -43 -14 -3 -5 -20
-9 -39 -9 -19 0 -37 -4 -40 -10 -3 -5 -17 -10 -30 -10 -13 0 -27 -4 -30 -10
-3 -5 -17 -10 -31 -10 -13 0 -32 -4 -42 -9 -9 -5 -38 -15 -64 -23 -27 -7 -48
-16 -48 -20 0 -4 -13 -8 -29 -8 -17 0 -33 -4 -36 -10 -3 -5 -15 -10 -26 -10
-10 0 -28 -4 -39 -10 -11 -5 -29 -14 -40 -20 -11 -5 -28 -10 -37 -10 -10 0
-29 -9 -43 -20 -14 -11 -30 -20 -37 -20 -13 0 -82 -36 -97 -51 -34 -31 -47 18
-25 90 6 20 15 52 21 71 9 35 23 71 39 102 5 10 9 25 9 33 0 8 5 15 10 15 6 0
10 9 10 20 0 11 5 20 10 20 6 0 10 5 10 11 0 33 137 189 167 189 7 0 13 5 13
10 0 6 11 10 24 10 14 0 28 5 31 10 3 6 21 10 38 11 18 0 41 4 52 9 21 10 42
8 135 -10z m-900 -52 c0 -4 9 -8 20 -8 11 0 20 -4 20 -10 0 -5 7 -10 16 -10
24 0 131 -112 151 -159 10 -23 21 -41 25 -41 5 0 8 -11 8 -24 0 -14 4 -27 9
-30 20 -13 40 -241 22 -259 -6 -6 -44 7 -115 42 -58 28 -113 51 -121 51 -8 0
-15 5 -15 10 0 6 -9 10 -20 10 -11 0 -20 5 -20 10 0 6 -6 10 -13 10 -7 0 -32
9 -55 20 -22 11 -48 20 -57 20 -8 0 -15 5 -15 10 0 6 -9 10 -20 10 -11 0 -28
4 -38 9 -9 5 -30 14 -47 21 -16 7 -38 16 -47 21 -10 5 -29 9 -42 9 -14 0 -28
5 -31 10 -3 6 -21 10 -40 10 -19 0 -37 5 -40 10 -3 6 -24 10 -45 10 -51 0 -70
8 -70 30 0 21 93 119 133 139 15 8 27 18 27 23 0 4 9 8 20 8 11 0 20 5 20 10
0 6 7 10 15 10 8 0 23 4 33 9 34 17 89 31 128 32 21 0 47 4 57 7 21 9 147 -9
147 -20z m1360 0 c0 -4 6 -8 13 -8 7 0 22 -8 33 -18 10 -10 35 -29 54 -42 19
-14 54 -44 78 -67 l42 -42 0 -276 c0 -213 -3 -275 -12 -276 -21 -2 -41 1 -85
13 l-43 11 0 128 c0 74 -4 130 -10 134 -5 3 -10 18 -10 32 0 27 -16 84 -31
115 -5 10 -9 25 -9 33 0 8 -4 15 -10 15 -5 0 -10 6 -10 13 0 18 -24 67 -32 67
-5 0 -8 6 -8 13 0 7 -8 22 -17 33 -10 10 -24 30 -31 44 -7 14 -28 35 -47 48
-19 12 -35 27 -35 32 0 6 34 10 85 9 47 -1 85 -6 85 -11z m-17 -300 c14 -33
25 -71 46 -161 15 -66 14 -229 -1 -250 -11 -14 -49 -17 -313 -21 -165 -3 -336
-9 -380 -15 -44 -6 -102 -13 -130 -17 -27 -3 -54 -10 -59 -15 -6 -5 -20 -9
-32 -9 -13 0 -26 -4 -29 -10 -3 -5 -19 -10 -36 -10 -16 0 -29 -4 -29 -10 0
-14 -33 -13 -48 2 -7 7 -12 32 -12 57 0 26 -5 63 -9 85 -8 33 -7 41 13 60 27
26 53 41 131 78 33 16 68 33 77 38 10 6 23 10 28 10 6 0 30 9 52 20 23 11 52
20 65 20 13 0 23 3 23 8 0 9 72 32 100 32 11 0 20 5 20 10 0 6 11 10 25 10 14
0 33 4 43 9 29 14 87 31 110 31 11 0 24 5 27 10 3 6 22 10 41 10 19 0 34 5 34
10 0 6 18 10 39 10 22 0 43 5 46 10 3 6 25 10 48 10 23 0 49 5 57 10 26 17 39
11 53 -22z m-1831 1 c9 -5 26 -9 37 -9 12 0 29 -4 39 -9 9 -5 49 -18 87 -30
39 -12 93 -31 120 -43 28 -11 61 -25 75 -30 14 -6 33 -14 42 -19 10 -5 25 -9
33 -9 8 0 15 -4 15 -10 0 -5 6 -10 14 -10 8 0 31 -9 53 -19 21 -11 76 -39 123
-61 108 -53 110 -55 110 -101 0 -21 5 -58 12 -82 6 -24 8 -55 4 -70 -5 -23
-12 -27 -41 -27 -18 0 -37 5 -40 10 -3 6 -25 10 -49 10 -23 0 -46 4 -51 9 -6
5 -30 12 -55 15 -120 14 -178 24 -189 30 -6 4 -135 7 -286 7 l-275 0 -6 24
c-11 45 19 274 45 340 15 37 35 80 43 91 9 12 113 7 140 -7z m2301 -441 c31
-16 47 -34 47 -52 0 -9 5 -16 10 -16 6 0 10 -47 10 -120 0 -73 -4 -120 -10
-120 -5 0 -10 -9 -10 -20 0 -31 -24 -24 -69 20 l-41 40 15 36 c19 46 20 104 1
104 -7 0 -23 -23 -35 -51 -22 -50 -22 -50 -40 -30 -10 12 -25 21 -33 21 -26 0
-38 23 -38 74 0 50 19 86 47 86 7 0 13 4 13 8 0 9 55 29 88 31 13 0 33 -4 45
-11z m-322 -28 c21 0 41 -4 44 -10 3 -5 15 -10 26 -10 16 0 19 -7 19 -50 0
-28 -5 -59 -12 -69 -11 -19 -14 -18 -57 12 -25 18 -54 40 -65 50 -11 9 -26 17
-33 17 -16 0 -16 0 3 45 11 28 18 35 27 26 6 -6 28 -11 48 -11z m-2243 -27
c38 -101 38 -97 -2 -138 -21 -20 -38 -35 -39 -33 -14 21 -26 61 -31 94 -5 34
-1 46 21 72 32 39 38 40 51 5z m2067 19 c31 -6 41 -12 43 -30 2 -12 -1 -22 -7
-22 -6 0 -11 -6 -11 -14 0 -30 -67 -141 -115 -189 -54 -56 -122 -97 -161 -97
-13 0 -24 -4 -24 -8 0 -17 -174 -30 -256 -20 -92 11 -197 42 -236 69 -14 11
-31 19 -37 19 -6 0 -11 3 -11 8 0 4 -19 21 -41 37 -46 34 -99 104 -99 132 0
14 13 22 48 32 26 8 52 17 57 21 6 4 26 10 45 13 19 3 58 11 85 17 28 6 94 15
148 19 54 5 101 11 104 15 9 8 418 7 468 -2z m-2195 -57 c0 -41 -2 -45 -24
-45 -13 0 -31 -3 -40 -6 -12 -4 -16 0 -16 15 0 12 5 21 10 21 6 0 10 7 10 16
0 18 27 43 48 44 8 0 12 -15 12 -45z m725 31 c33 -4 71 -9 85 -12 14 -3 50 -9
80 -14 30 -5 75 -14 100 -20 25 -6 66 -13 92 -17 44 -5 69 -25 48 -38 -6 -4
-10 -19 -10 -36 0 -16 -4 -29 -10 -29 -5 0 -10 -6 -10 -14 0 -7 -12 -22 -27
-31 -37 -24 -73 -62 -73 -75 0 -18 -27 -40 -49 -40 -11 0 -23 -4 -26 -10 -3
-5 -15 -10 -26 -10 -10 0 -19 -4 -19 -10 0 -5 -15 -10 -34 -10 -19 0 -38 -4
-41 -10 -4 -6 -63 -10 -145 -10 -82 0 -141 4 -145 10 -3 6 -17 10 -31 10 -13
0 -24 5 -24 10 0 6 -9 10 -20 10 -11 0 -20 5 -20 10 0 6 -7 10 -16 10 -19 0
-144 128 -144 147 0 7 -4 13 -10 13 -5 0 -10 9 -10 20 0 11 -4 20 -10 20 -5 0
-10 7 -10 15 0 8 -4 24 -10 35 -5 11 -15 29 -21 41 -6 12 -9 22 -7 23 32 20
87 24 273 21 116 -1 237 -5 270 -9z m1618 -121 c35 -18 38 -23 32 -50 -14 -59
-3 -175 16 -175 5 0 9 -13 9 -30 l0 -30 -160 0 c-92 0 -160 4 -160 9 0 5 -12
11 -27 13 -34 4 -46 38 -14 38 12 0 21 4 21 9 0 5 8 12 19 16 25 8 101 83 101
100 0 7 3 15 8 17 13 6 52 67 52 83 0 8 4 15 9 15 5 0 11 10 14 22 6 22 6 22
24 2 10 -10 35 -28 56 -39z m-1143 -5 c0 -11 4 -20 8 -20 5 0 15 -12 23 -27
18 -35 63 -80 112 -113 20 -14 37 -28 37 -32 0 -5 8 -8 18 -8 10 0 22 -4 28
-8 14 -14 94 -44 144 -55 54 -12 283 -14 323 -3 26 8 87 -8 87 -23 0 -9 -75
-31 -104 -31 -14 0 -28 -4 -31 -10 -3 -5 -13 -10 -21 -10 -16 0 -44 -23 -44
-35 0 -8 62 -2 155 14 90 16 296 32 417 33 100 1 110 0 147 -25 22 -15 43 -27
47 -27 11 0 74 -74 74 -87 0 -7 4 -13 9 -13 13 0 21 -40 8 -40 -7 -1 -205 -2
-442 -4 -236 -2 -477 -8 -535 -14 -58 -6 -139 -14 -180 -17 -41 -4 -84 -10
-95 -15 -11 -5 -69 -12 -130 -14 -60 -3 -171 -10 -245 -15 -74 -5 -220 -13
-325 -17 -104 -3 -198 -11 -207 -15 -28 -15 -359 -12 -409 3 -45 14 -169 126
-169 154 0 8 -4 14 -8 14 -12 0 -52 92 -52 118 0 12 10 30 22 42 32 30 138 29
181 -2 48 -34 77 -65 77 -83 0 -22 37 -18 43 5 3 11 12 20 21 20 9 0 16 5 16
10 0 6 13 10 28 10 15 0 32 4 37 9 6 5 30 11 55 14 25 3 70 10 100 15 35 6 88
6 147 0 138 -16 294 6 386 54 11 5 20 8 22 6 11 -13 25 -50 25 -67 0 -10 21
-40 46 -65 36 -37 52 -46 80 -46 27 0 34 4 34 20 0 13 -7 20 -20 20 -11 0 -20
5 -20 10 0 6 -7 10 -16 10 -20 0 -44 24 -44 44 0 9 -4 16 -10 16 -14 0 -13
103 1 133 24 52 102 62 150 20 38 -34 51 -57 59 -103 3 -22 12 -36 23 -38 37
-7 15 115 -30 163 -23 25 -58 45 -78 45 -30 0 -13 98 18 100 4 0 7 -9 7 -20z
m-1184 -23 c10 -12 25 -39 32 -59 11 -31 10 -44 -3 -85 -25 -77 -26 -78 -80
-64 -34 8 -51 9 -58 2 -6 -6 -22 -11 -35 -11 -67 0 -95 -114 -49 -202 12 -23
25 -44 30 -46 4 -2 7 -8 7 -13 0 -25 137 -159 163 -159 7 0 17 -4 22 -9 6 -5
35 -12 65 -15 203 -19 190 -17 190 -41 0 -65 -105 -77 -333 -39 -20 3 -40 10
-43 15 -3 5 -18 9 -35 9 -16 0 -29 5 -29 10 0 12 -57 14 -64 2 -10 -17 38 -52
73 -52 11 0 22 -4 25 -9 3 -5 20 -11 38 -14 18 -4 58 -11 88 -17 30 -6 79 -14
108 -17 51 -5 52 -5 52 -38 0 -44 -74 -125 -114 -125 -14 0 -26 -4 -26 -10 0
-5 -11 -10 -24 -10 -14 0 -27 -4 -30 -9 -3 -5 -20 -11 -38 -14 -89 -16 -98
-19 -98 -39 0 -18 5 -19 48 -14 82 9 122 18 122 27 0 5 14 9 30 9 17 0 30 5
30 10 0 6 9 10 20 10 11 0 20 5 20 10 0 6 9 10 20 10 11 0 20 -7 20 -15 0 -20
-22 -65 -32 -65 -4 0 -8 -6 -8 -14 0 -17 -70 -86 -87 -86 -7 0 -13 -4 -13 -8
0 -5 -12 -15 -27 -23 -16 -8 -34 -19 -40 -26 -18 -16 -16 -43 2 -43 20 0 65
21 65 31 0 4 9 11 20 14 12 4 36 22 55 41 41 40 65 44 65 10 0 -37 -27 -93
-63 -129 -28 -30 -53 -44 -132 -77 -20 -9 -125 -15 -201 -12 -32 2 -49 10 -75
35 -46 44 -89 99 -89 114 0 6 -5 13 -11 15 -8 3 -12 48 -14 133 -3 157 -14
285 -26 285 -5 0 -9 20 -9 44 0 25 -4 48 -10 51 -5 3 -10 19 -10 35 0 16 -4
32 -10 35 -13 8 -13 122 0 130 6 3 10 13 10 21 0 8 54 68 120 133 66 66 120
123 120 128 0 5 8 18 18 29 22 25 52 74 59 97 3 9 9 17 14 17 5 0 9 9 9 20 0
11 5 20 10 20 6 0 10 6 10 14 0 7 12 25 26 40 34 33 83 35 110 3z m192 -42 c9
-16 22 -35 29 -42 6 -7 14 -21 18 -31 3 -9 27 -33 53 -52 86 -64 89 -70 33
-70 -22 0 -43 -4 -46 -10 -3 -5 -22 -10 -41 -10 -19 0 -34 -4 -34 -10 0 -5
-10 -10 -23 -10 -13 0 -27 -4 -33 -10 -6 -6 -20 -1 -39 16 -17 14 -36 29 -44
34 -12 6 -11 13 3 40 9 18 16 50 16 71 0 31 8 47 38 78 20 22 41 39 45 38 5
-1 16 -16 25 -32z m2325 13 c12 -7 31 -24 42 -38 58 -71 135 -130 172 -130 19
0 79 -18 105 -31 10 -5 25 -9 33 -9 8 0 15 -4 15 -10 0 -5 9 -10 19 -10 11 0
21 -4 23 -8 2 -4 23 -23 48 -42 55 -43 118 -109 126 -132 3 -10 10 -18 15 -18
5 0 9 -4 9 -10 0 -5 14 -32 30 -60 17 -28 30 -60 30 -70 0 -11 5 -20 10 -20 6
0 10 -11 10 -24 0 -14 5 -28 10 -31 6 -3 10 -23 10 -44 0 -20 5 -42 11 -48 15
-15 -4 -293 -20 -293 -4 0 -12 -19 -19 -42 -12 -39 -72 -118 -90 -118 -4 0
-23 -14 -42 -30 -19 -16 -41 -30 -47 -30 -7 0 -13 -4 -13 -8 0 -4 -21 -14 -47
-21 -27 -8 -55 -18 -63 -21 -59 -28 -222 -42 -246 -22 -5 5 -27 14 -49 21 -23
7 -52 21 -65 32 l-25 19 28 0 c42 0 34 25 -33 92 -60 61 -82 102 -40 76 11 -7
20 -16 20 -20 0 -5 14 -8 30 -8 17 0 30 2 30 5 0 15 -25 55 -35 55 -6 0 -20 8
-31 18 -10 10 -35 29 -54 42 -51 36 -100 87 -100 105 0 8 -4 15 -10 15 -5 0
-10 14 -10 30 0 23 4 30 20 30 11 0 20 -4 20 -9 0 -5 10 -11 23 -14 12 -2 29
-8 38 -11 11 -5 18 -1 22 13 4 16 -5 25 -47 45 -55 28 -108 58 -116 66 -3 3
-17 11 -33 19 -15 8 -45 33 -67 55 -32 32 -40 47 -40 77 0 57 14 63 143 55
302 -18 387 -19 402 -6 21 18 19 51 -7 102 -22 42 -111 138 -128 138 -19 0
-88 77 -109 119 -24 50 -28 134 -8 156 15 18 70 19 100 3z m-307 -820 c-10 -6
-22 -6 -26 -2 -5 5 3 10 18 11 22 1 24 0 8 -9z m-1906 -78 c0 -5 -4 -10 -10
-10 -5 0 -10 5 -10 10 0 6 5 10 10 10 6 0 10 -4 10 -10z m1988 -26 l33 -36
-28 -24 c-15 -13 -34 -24 -40 -24 -7 0 -13 -4 -13 -9 0 -5 -15 -14 -32 -22
-18 -7 -35 -16 -38 -19 -3 -3 -20 -12 -37 -19 -18 -8 -33 -17 -33 -22 0 -5 -9
-9 -20 -9 -11 0 -20 -4 -20 -10 0 -5 -6 -10 -13 -10 -7 0 -32 -9 -55 -20 -22
-11 -48 -20 -57 -20 -8 0 -15 -4 -15 -10 0 -5 -7 -10 -15 -10 -8 0 -25 -5 -38
-12 -47 -24 -57 -28 -72 -28 -8 0 -15 -4 -15 -10 0 -5 -11 -10 -24 -10 -14 0
-28 -4 -31 -10 -3 -5 -18 -10 -33 -10 -22 0 -31 8 -47 43 -11 23 -21 45 -23
50 -2 4 5 7 17 7 11 0 23 5 26 10 3 6 17 10 31 10 13 0 24 5 24 10 0 6 9 10
20 10 11 0 20 5 20 10 0 6 11 10 24 10 14 0 28 5 31 10 3 6 15 10 26 10 10 0
19 5 19 10 0 6 9 10 20 10 11 0 20 4 20 8 0 5 23 15 50 22 28 7 50 17 50 22 0
4 9 8 20 8 11 0 20 5 20 10 0 6 9 10 20 10 11 0 20 5 20 10 0 6 9 10 20 10 11
0 20 5 20 10 0 6 9 10 20 10 11 0 20 5 20 10 0 6 6 10 13 10 8 0 22 9 33 19
28 29 45 25 82 -15z m-868 4 c22 -7 40 -16 40 -20 0 -5 6 -8 14 -8 18 0 117
-97 135 -132 25 -48 -4 -63 -45 -23 -14 14 -34 25 -44 25 -16 0 -20 -7 -20
-35 0 -24 5 -35 15 -35 8 0 29 -19 45 -42 34 -47 120 -221 120 -243 0 -8 5
-17 10 -20 6 -3 10 -21 10 -40 0 -19 3 -36 8 -38 13 -8 14 -116 1 -155 -25
-79 -68 -142 -96 -142 -7 0 -13 -4 -13 -10 0 -5 -9 -10 -20 -10 -11 0 -20 -4
-20 -10 0 -5 -9 -10 -20 -10 -11 0 -20 -4 -20 -9 0 -11 -52 -21 -145 -28 -63
-4 -111 3 -170 27 -11 5 -38 15 -60 22 -22 7 -49 21 -59 31 -11 9 -24 17 -28
17 -25 0 -122 124 -147 188 -8 17 -17 32 -22 32 -5 0 -9 9 -9 20 0 11 -4 29
-10 40 -5 11 -15 29 -20 40 -5 11 -10 38 -10 59 0 22 -4 43 -10 46 -5 3 -10
39 -10 80 0 41 5 77 10 80 6 3 10 16 10 27 0 28 22 88 32 88 4 0 8 6 8 13 0 7
10 19 21 27 12 8 31 24 43 35 28 26 83 45 132 45 l40 0 0 -157 c0 -153 15
-263 35 -263 5 0 9 -13 9 -30 0 -16 5 -30 10 -30 6 0 10 -6 10 -14 0 -8 10
-22 22 -31 21 -14 24 -14 34 0 14 19 7 53 -18 79 -10 11 -18 30 -18 43 0 13
-4 31 -9 41 -11 22 -31 150 -31 204 0 43 14 104 36 153 33 76 121 105 224 73z
m-1190 -48 c8 -11 22 -20 32 -20 10 0 18 -4 18 -10 0 -5 9 -10 20 -10 11 0 20
-4 20 -10 0 -5 9 -10 20 -10 11 0 20 -4 20 -10 0 -5 9 -10 20 -10 11 0 20 -4
20 -10 0 -5 9 -10 20 -10 11 0 20 -4 20 -10 0 -5 9 -10 20 -10 11 0 28 -4 38
-9 9 -5 31 -14 47 -21 17 -7 38 -16 47 -21 10 -5 27 -9 37 -9 11 0 23 -4 26
-10 3 -5 19 -10 36 -10 16 0 29 -4 29 -10 0 -5 8 -10 19 -10 33 0 45 -26 35
-78 -8 -44 -11 -47 -39 -44 -33 2 -101 20 -125 31 -8 4 -36 14 -62 22 -27 7
-48 17 -48 21 0 4 -7 8 -15 8 -14 0 -25 4 -77 32 -13 6 -41 21 -63 32 -22 12
-49 29 -59 39 -11 9 -24 17 -29 17 -5 0 -24 15 -43 34 -29 29 -34 41 -34 80 0
37 3 46 18 46 10 0 24 -9 32 -20z m2086 -152 c-6 -113 -21 -264 -37 -378 -6
-47 -12 -121 -13 -165 -1 -69 1 -80 17 -83 12 -2 17 3 17 17 0 12 4 21 8 21
25 0 44 -111 22 -125 -5 -3 -10 -13 -10 -21 0 -23 -62 -110 -95 -133 -16 -11
-43 -32 -59 -46 -16 -14 -54 -37 -85 -52 -31 -15 -57 -31 -59 -35 -2 -4 -12
-8 -22 -8 -10 0 -22 -4 -25 -10 -3 -5 -17 -10 -31 -10 -13 0 -24 -4 -24 -10 0
-5 -11 -10 -24 -10 -14 0 -27 -4 -30 -9 -3 -5 -20 -11 -38 -14 -18 -3 -53 -11
-78 -17 -95 -24 -171 -32 -343 -37 -147 -3 -180 -1 -192 11 -8 8 -15 19 -15
24 0 5 -13 23 -30 40 -16 18 -30 36 -30 41 0 6 -17 23 -37 38 -21 15 -45 36
-54 45 -9 10 -21 18 -28 18 -6 0 -11 4 -11 8 0 5 -16 14 -35 22 -19 8 -35 17
-35 22 0 4 -9 8 -20 8 -11 0 -20 3 -20 8 0 8 -49 32 -67 32 -7 0 -13 5 -13 10
0 6 -9 10 -20 10 -11 0 -20 5 -20 10 0 6 -8 10 -18 10 -22 0 -82 28 -82 39 0
4 -8 16 -17 27 -10 10 -27 37 -39 59 -11 22 -25 49 -31 60 -13 24 -52 111 -64
143 -18 45 -32 77 -40 94 -5 10 -9 26 -9 36 0 10 -4 22 -9 27 -13 15 -23 123
-11 130 9 6 60 -33 60 -46 0 -5 13 -31 30 -59 16 -28 30 -55 30 -60 0 -5 13
-32 30 -60 16 -28 30 -57 30 -64 0 -45 68 -44 91 1 8 16 25 39 38 52 26 27 36
20 48 -31 3 -16 9 -28 14 -28 5 0 9 -6 9 -14 0 -18 61 -136 83 -160 9 -11 17
-24 17 -28 0 -11 60 -70 90 -86 69 -40 92 -52 136 -68 58 -20 144 -36 199 -36
56 1 128 12 139 23 6 5 20 9 33 9 13 0 23 5 23 10 0 6 6 10 13 10 18 0 67 24
67 33 0 4 6 7 13 7 16 0 87 91 87 112 0 8 5 19 10 24 6 6 12 54 13 107 2 85 4
97 20 97 9 0 17 -4 17 -10 0 -5 16 -10 36 -10 27 0 37 5 41 20 3 11 9 20 14
20 5 0 9 6 9 13 0 18 24 67 33 67 4 0 7 9 7 20 0 11 5 20 10 20 6 0 10 9 10
20 0 11 3 20 8 20 8 0 32 49 32 67 0 7 3 13 8 13 8 0 32 48 32 63 0 15 41 47
83 65 20 9 37 20 37 24 0 5 9 8 20 8 11 0 20 5 20 10 0 6 6 10 13 10 7 0 23 9
35 20 12 11 28 20 37 20 8 0 15 5 15 10 0 6 5 10 11 10 7 0 9 -30 5 -92z m81
-16 c0 -24 6 -49 12 -55 6 -6 11 -18 11 -27 0 -9 8 -25 18 -36 27 -29 33 -74
14 -106 -9 -16 -20 -28 -24 -28 -4 0 -8 -9 -8 -19 0 -23 -23 -33 -57 -25 -25
7 -25 7 -19 93 11 174 17 246 22 259 8 27 30 -12 31 -56z m-2157 -24 c0 -4 9
-8 20 -8 11 0 20 -2 20 -4 0 -2 3 -11 6 -20 5 -13 -1 -16 -29 -16 -20 0 -39
-4 -42 -10 -3 -5 -13 -10 -21 -10 -10 0 -14 12 -14 43 0 24 3 46 6 50 8 7 54
-13 54 -25z m3300 -44 c0 -2 -7 -4 -15 -4 -8 0 -15 4 -15 10 0 5 7 7 15 4 8
-4 15 -8 15 -10z m-173 -47 c6 -23 14 -54 18 -69 3 -16 12 -28 20 -28 17 0 30
-37 17 -53 -9 -12 -2 -87 14 -151 5 -19 2 -31 -7 -37 -11 -7 -10 -11 6 -23 18
-13 20 -13 23 5 5 26 42 26 42 0 0 -11 -5 -32 -10 -47 -9 -22 -7 -31 10 -49
18 -20 19 -26 9 -78 l-12 -57 -52 6 c-48 6 -53 4 -60 -15 -8 -27 -46 -28 -62
-1 -13 19 -73 56 -73 45 0 -11 -26 19 -33 38 -4 10 -17 17 -32 17 -14 0 -25 3
-26 8 0 4 -2 17 -3 29 -3 29 21 38 36 13 15 -24 28 -26 28 -5 0 8 -4 15 -10
15 -5 0 -10 23 -10 50 0 28 -4 50 -10 50 -5 0 -10 9 -10 20 0 11 -2 20 -5 20
-3 0 -15 -9 -27 -20 -18 -17 -48 -27 -48 -17 0 1 -9 27 -20 57 -21 57 -16 72
21 63 18 -5 19 -3 8 23 -27 67 -32 74 -58 74 -74 -1 -94 -31 -36 -56 38 -15
48 -44 15 -44 -13 0 -20 7 -20 20 0 15 -7 20 -25 20 -18 0 -25 5 -25 20 0 11
-6 20 -14 20 -21 0 -27 27 -8 34 27 9 74 41 100 69 9 9 28 17 42 17 14 0 32 6
39 13 11 10 13 9 8 -5 -5 -15 -2 -16 18 -8 47 18 69 -8 43 -49 -9 -15 -9 -23
1 -35 19 -23 31 -20 31 8 0 14 4 27 8 30 4 3 14 27 22 55 13 47 15 50 49 53
52 5 56 2 68 -45z m-1387 23 c0 -11 -3 -20 -7 -20 -9 0 -33 -48 -33 -66 0 -7
-4 -14 -8 -16 -5 -1 -28 -42 -52 -90 -39 -79 -60 -106 -60 -78 0 6 -7 10 -15
10 -18 0 -65 39 -65 55 0 6 -9 30 -20 53 -24 49 -25 72 -5 72 8 0 24 5 35 10
11 6 29 15 40 20 11 6 24 10 30 10 6 0 29 8 53 19 111 48 107 48 107 21z
m1558 -18 c3 -16 -2 -22 -17 -22 -11 0 -22 -9 -26 -20 -3 -11 -10 -20 -15 -20
-24 0 -40 15 -40 36 0 20 5 24 29 24 17 0 31 6 35 16 8 21 30 12 34 -14z
m-2849 -103 c36 -12 72 -23 79 -25 19 -5 14 -48 -8 -64 -11 -8 -20 -19 -20
-25 0 -13 -45 -65 -56 -65 -7 0 -84 144 -102 191 -6 15 38 10 107 -12z m2079
-33 c6 -4 12 -20 12 -37 0 -27 -3 -29 -35 -29 -29 0 -36 4 -41 25 -3 14 -10
25 -15 25 -5 0 -9 6 -9 14 0 15 64 17 88 2z m-180 -61 c12 -25 36 -33 47 -15
3 6 21 10 40 10 19 0 37 -4 40 -10 3 -5 18 -10 33 -10 21 0 32 -8 45 -33 16
-29 22 -32 53 -29 28 4 33 1 28 -12 -3 -9 -11 -13 -18 -9 -6 4 -36 8 -66 8
-30 0 -63 4 -72 9 -12 5 -18 4 -18 -3 0 -6 9 -11 20 -11 11 0 20 -4 20 -10 0
-5 9 -10 20 -10 17 0 20 -7 20 -50 0 -27 5 -50 10 -50 16 0 12 -56 -5 -70 -23
-19 -45 5 -45 50 0 32 -4 39 -30 50 -16 7 -30 16 -30 21 0 5 -9 9 -20 9 -11 0
-20 5 -20 10 0 6 9 10 20 10 36 0 21 17 -21 24 -35 6 -40 10 -36 26 7 28 -12
36 -29 12 -18 -26 -40 -19 -60 19 -13 26 -13 30 1 35 10 4 14 13 10 22 -3 8 0
19 7 24 24 14 45 8 56 -17z m288 -159 c12 -13 18 -13 44 2 28 16 30 16 44 -3
8 -11 12 -22 9 -25 -3 -3 -8 1 -10 8 -6 17 -16 15 -41 -9 l-22 -20 -31 30
c-17 17 -25 31 -19 31 6 0 18 -6 26 -14z m287 -32 c16 -14 25 -29 21 -33 -4
-3 -9 0 -11 7 -4 10 -8 10 -19 1 -10 -8 -14 -8 -14 0 0 6 -9 11 -20 11 -13 0
-20 7 -20 20 0 28 29 25 63 -6z m-180 -201 c-5 -11 -8 -12 -13 -2 -5 7 -6 19
-3 26 5 11 8 12 13 2 5 -7 6 -19 3 -26z m-513 15 c0 -9 59 -28 89 -28 14 1 43
7 64 14 79 29 217 -17 217 -71 0 -16 6 -23 20 -23 11 0 20 5 20 10 0 6 26 10
59 10 51 0 63 -4 90 -29 42 -39 42 -111 1 -111 -11 0 -22 -5 -25 -10 -4 -6
-15 -8 -26 -5 -13 4 -19 2 -19 -9 0 -18 -69 -76 -91 -76 -9 0 -24 -9 -34 -20
-10 -11 -26 -20 -37 -20 -11 0 -18 -7 -18 -20 0 -11 -4 -20 -10 -20 -5 0 -10
4 -10 9 0 5 -38 10 -85 10 -64 0 -95 5 -127 21 -23 11 -46 20 -51 20 -14 0
-37 27 -37 44 0 18 -1 18 97 16 41 -1 74 3 78 9 3 6 -2 11 -13 11 -10 0 -45
14 -77 30 -32 17 -70 30 -84 30 -36 1 -61 22 -61 53 0 14 -4 28 -9 31 -14 9
-22 83 -11 111 8 22 15 25 50 23 22 -2 40 -6 40 -10z m1060 -68 c0 -21 -24
-28 -35 -10 -8 14 3 30 21 30 8 0 14 -9 14 -20z m-413 -203 c-7 -17 -9 -17
-32 0 -13 10 -19 20 -14 21 5 2 9 10 9 18 0 9 4 13 9 10 5 -4 13 8 17 26 l8
33 6 -45 c3 -25 2 -53 -3 -63z m-666 -117 c5 0 9 -4 9 -10 0 -5 -9 -10 -21
-10 -19 0 -20 4 -15 58 7 75 9 78 13 15 2 -29 8 -53 14 -53z m689 48 c0 -18
-2 -20 -9 -8 -6 8 -7 18 -5 22 9 14 14 9 14 -14z m140 -32 c0 -8 -4 -18 -10
-21 -5 -3 -10 3 -10 14 0 12 5 21 10 21 6 0 10 -6 10 -14z m-14 -36 c10 0 14
-12 14 -40 0 -46 -15 -53 -23 -11 -3 16 -13 36 -21 44 -12 11 -13 16 -3 20 6
2 14 0 15 -4 2 -5 10 -9 18 -9z m-560 -31 c11 -18 -8 -27 -73 -35 -54 -6 -64
-4 -69 11 -4 10 -1 21 7 26 20 12 127 11 135 -2z m-245 -21 c18 -22 26 -78 12
-78 -14 0 -55 72 -49 86 7 19 15 18 37 -8z"/>
<path d="M2162 2777 c-38 -41 -21 -97 29 -97 42 0 67 74 35 106 -21 20 -39 17
-64 -9z"/>
<path d="M1838 2703 c-26 -7 -24 -60 2 -68 35 -11 60 3 60 35 0 16 -7 30 -16
34 -17 6 -19 6 -46 -1z"/>
<path d="M3518 863 c-24 -6 -23 -23 2 -23 11 0 20 7 20 15 0 8 -1 14 -2 14 -2
-1 -11 -3 -20 -6z"/>
<path d="M4464 2979 c-3 -6 -1 -16 5 -22 8 -8 11 -5 11 11 0 24 -5 28 -16 11z"/>
<path d="M4465 2830 c-3 -5 -1 -10 4 -10 6 0 11 5 11 10 0 6 -2 10 -4 10 -3 0
-8 -4 -11 -10z"/>
<path d="M4407 2754 c-13 -13 -7 -34 9 -34 10 0 14 -6 11 -15 -4 -8 -2 -17 3
-20 6 -4 10 -14 10 -23 0 -10 9 -23 20 -30 20 -12 21 -11 18 55 -3 68 -3 68
-33 71 -17 2 -34 0 -38 -4z"/>
<path d="M4410 2570 c0 -5 5 -10 11 -10 5 0 7 5 4 10 -3 6 -8 10 -11 10 -2 0
-4 -4 -4 -10z"/>
<path d="M4460 2570 c0 -5 5 -10 10 -10 6 0 10 5 10 10 0 6 -4 10 -10 10 -5 0
-10 -4 -10 -10z"/>
<path d="M4403 2499 c-3 -10 -14 -21 -25 -25 -30 -9 -15 -28 31 -38 34 -7 42
-13 38 -27 -3 -10 2 -20 10 -23 9 -4 12 -13 8 -25 -3 -11 -1 -22 5 -26 6 -4
10 22 10 77 l0 83 -36 11 c-32 11 -37 10 -41 -7z"/>
<path d="M4375 2350 c-3 -5 -17 -10 -31 -10 -28 0 -32 -20 -6 -36 15 -10 24
-6 50 17 18 16 32 31 32 34 0 9 -39 5 -45 -5z"/>
<path d="M4365 2260 c3 -5 8 -10 11 -10 2 0 4 5 4 10 0 6 -5 10 -11 10 -5 0
-7 -4 -4 -10z"/>
<path d="M4404 2253 c10 -11 36 -12 36 -2 0 5 -10 9 -22 9 -12 0 -18 -3 -14
-7z"/>
</g>
</svg>
